<svg id="svg" version="1.1" xmlns="http://www.w3.org/2000/svg" xmlns:xlink="http://www.w3.org/1999/xlink" width="400" height="400" viewBox="0, 0, 400,400"><g id="svgg"><path id="path0" d="M0.000 199.999 L 0.000 399.999 200.000 399.999 L 400.000 399.999 400.000 200.000 L 400.000 0.000 200.000 0.000 L 0.000 0.000 0.000 199.999 M210.634 48.085 L 215.200 52.570 215.200 62.485 L 215.200 72.400 237.218 72.400 L 259.236 72.400 276.218 89.378 L 293.200 106.356 293.200 123.378 L 293.200 140.400 303.000 140.400 L 312.800 140.400 312.800 165.200 L 312.800 190.000 307.800 190.000 C 305.050 190.000,302.799 190.135,302.798 190.300 C 302.798 190.465,302.753 224.350,302.698 265.600 L 302.600 340.600 294.685 348.400 L 286.771 356.200 263.085 356.400 L 239.400 356.600 239.293 365.900 L 239.185 375.200 224.193 375.200 L 209.200 375.200 209.200 365.800 L 209.200 356.400 199.600 356.400 L 190.000 356.400 190.000 365.800 L 190.000 375.200 175.400 375.200 L 160.800 375.200 160.800 365.800 L 160.800 356.400 136.726 356.400 L 112.653 356.400 106.226 350.031 C 102.692 346.528,99.350 343.304,98.800 342.866 L 97.800 342.071 97.600 266.135 L 97.400 190.200 92.700 190.087 L 88.000 189.975 88.000 165.187 L 88.000 140.400 97.400 140.400 L 106.800 140.400 106.800 123.407 L 106.800 106.414 123.786 89.407 L 140.772 72.400 162.786 72.400 L 184.800 72.400 184.794 62.500 L 184.789 52.600 189.294 48.118 L 193.800 43.635 199.934 43.618 L 206.068 43.600 210.634 48.085 M196.262 54.331 C 195.672 54.983,195.601 56.590,195.606 69.031 C 195.609 76.714,195.763 82.762,195.947 82.472 C 196.197 82.077,197.303 81.976,200.342 82.072 L 204.402 82.200 204.401 68.562 C 204.400 52.523,204.722 53.600,199.930 53.600 C 197.526 53.600,196.791 53.746,196.262 54.331 M166.100 82.700 C 171.325 82.763,179.875 82.763,185.100 82.700 C 190.325 82.636,186.050 82.585,175.600 82.585 C 165.150 82.585,160.875 82.636,166.100 82.700 M215.128 82.700 C 220.478 82.763,229.118 82.763,234.328 82.700 C 239.537 82.636,235.160 82.585,224.600 82.585 C 214.040 82.585,209.777 82.637,215.128 82.700 M131.650 97.463 L 126.701 102.481 126.772 112.416 L 126.844 122.351 122.822 126.359 C 120.610 128.563,118.800 130.554,118.800 130.783 C 118.800 131.012,118.623 131.200,118.407 131.200 C 118.164 131.200,117.971 127.505,117.900 121.500 C 117.837 116.165,117.779 120.350,117.772 130.800 C 117.765 141.250,117.859 147.730,117.980 145.200 L 118.200 140.600 156.746 140.510 L 195.291 140.420 195.224 135.563 L 195.157 130.707 214.335 111.553 L 233.512 92.400 224.456 92.403 L 215.400 92.407 207.400 100.459 C 199.592 108.318,199.355 108.515,197.530 108.703 L 195.659 108.896 187.424 100.648 L 179.188 92.400 157.894 92.423 L 136.600 92.446 131.650 97.463 M146.307 121.627 L 146.200 131.400 141.400 131.400 L 136.600 131.400 136.600 121.600 L 136.600 111.800 141.200 111.600 C 143.730 111.490,145.938 111.502,146.107 111.627 C 146.276 111.752,146.366 116.252,146.307 121.627 M165.926 121.553 L 165.800 131.400 161.000 131.400 L 156.200 131.400 156.093 121.513 L 155.986 111.626 160.493 111.513 C 162.972 111.451,165.237 111.469,165.526 111.553 C 165.946 111.675,166.026 113.678,165.926 121.553 M185.246 121.600 L 185.245 131.400 180.523 131.400 L 175.800 131.400 175.693 121.488 L 175.586 111.575 180.416 111.688 L 185.246 111.800 185.246 121.600 M282.142 135.000 C 282.141 136.980,282.208 137.840,282.292 136.912 C 282.376 135.984,282.377 134.364,282.295 133.312 C 282.212 132.260,282.143 133.020,282.142 135.000 M107.700 151.100 L 98.000 151.214 98.000 165.407 L 98.000 179.600 146.600 179.600 L 195.200 179.600 195.200 165.200 L 195.200 150.800 156.300 150.893 C 134.905 150.943,113.035 151.037,107.700 151.100 M292.569 151.500 C 297.906 151.574,301.130 151.776,301.469 152.057 C 301.873 152.393,302.000 152.343,302.000 151.849 C 302.000 151.267,301.081 151.209,293.100 151.291 L 284.200 151.383 292.569 151.500 M301.775 165.200 C 301.775 171.250,301.831 173.725,301.899 170.700 C 301.967 167.675,301.967 162.725,301.899 159.700 C 301.831 156.675,301.775 159.150,301.775 165.200 M301.600 177.567 C 301.600 178.208,301.375 178.824,301.100 178.935 C 300.801 179.056,300.882 179.150,301.300 179.168 C 301.839 179.193,302.000 178.879,302.000 177.800 C 302.000 177.030,301.910 176.400,301.800 176.400 C 301.690 176.400,301.600 176.925,301.600 177.567 M122.556 340.790 C 119.892 343.424,117.807 345.674,117.923 345.789 C 118.039 345.905,127.622 346.000,139.220 346.000 L 160.307 346.000 160.548 345.100 C 160.681 344.605,160.792 342.355,160.795 340.100 L 160.800 336.000 144.100 336.001 L 127.400 336.002 122.556 340.790 " stroke="none" fill="#ebebeb" fill-rule="evenodd"></path><path id="path1" d="M107.900 180.032 C 107.237 180.418,107.200 184.553,107.200 257.949 L 107.200 335.459 112.011 340.230 C 114.657 342.853,117.011 345.065,117.242 345.144 C 117.473 345.223,119.714 343.243,122.221 340.744 L 126.780 336.200 143.690 336.000 L 160.600 335.800 160.713 331.100 L 160.825 326.400 158.613 326.400 L 156.400 326.400 156.400 321.400 L 156.400 316.400 158.600 316.400 L 160.800 316.400 160.800 311.667 L 160.800 306.934 158.600 307.117 L 156.400 307.299 156.400 302.050 L 156.400 296.800 161.000 296.800 L 165.600 296.800 165.600 298.600 C 165.600 299.590,165.751 300.400,165.935 300.400 C 166.119 300.400,167.029 299.590,167.957 298.600 L 169.644 296.800 182.522 296.800 L 195.400 296.800 195.295 238.520 C 195.212 192.759,195.083 180.173,194.695 179.926 C 193.929 179.440,108.739 179.543,107.900 180.032 M204.800 243.400 L 204.800 296.800 217.300 296.801 L 229.800 296.801 231.762 298.801 C 234.198 301.283,234.400 301.283,234.400 298.800 L 234.400 296.800 239.200 296.800 L 244.000 296.800 244.000 302.000 L 244.000 307.200 241.587 307.200 L 239.174 307.200 239.287 311.700 L 239.400 316.200 241.712 316.320 L 244.024 316.441 243.912 321.520 L 243.800 326.600 241.500 326.720 L 239.200 326.840 239.200 336.420 L 239.200 346.000 260.700 345.993 L 282.200 345.985 287.500 340.656 L 292.800 335.327 292.800 262.663 L 292.800 190.000 248.800 190.000 L 204.800 190.000 204.800 243.400 M126.469 204.352 L 126.497 209.303 121.948 209.274 L 117.400 209.246 117.288 204.210 L 117.176 199.174 121.809 199.287 L 126.442 199.400 126.469 204.352 M146.000 204.175 L 146.000 209.150 141.565 209.275 C 136.221 209.426,136.800 210.051,136.800 204.133 L 136.800 199.200 141.400 199.200 L 146.000 199.200 146.000 204.175 M165.600 204.133 C 165.600 210.051,166.179 209.426,160.835 209.275 L 156.400 209.150 156.400 204.175 L 156.400 199.200 161.000 199.200 L 165.600 199.200 165.600 204.133 M185.112 204.300 L 185.225 209.200 180.812 209.200 C 178.386 209.200,176.278 209.155,176.130 209.100 C 175.936 209.029,175.833 201.610,175.992 199.287 C 175.997 199.225,178.025 199.225,180.500 199.287 L 185.000 199.400 185.112 204.300 M224.400 204.000 C 224.400 206.640,224.400 208.935,224.400 209.100 C 224.400 209.265,222.218 209.400,219.551 209.400 L 214.703 209.400 214.741 204.400 C 214.762 201.650,214.784 199.355,214.790 199.300 C 214.795 199.245,216.960 199.200,219.600 199.200 L 224.400 199.200 224.400 204.000 M243.912 204.300 L 243.800 209.400 239.051 209.400 L 234.303 209.400 234.341 204.400 C 234.362 201.650,234.384 199.355,234.390 199.300 C 234.395 199.245,236.565 199.200,239.212 199.200 L 244.024 199.200 243.912 204.300 M263.512 204.300 L 263.400 209.400 258.600 209.400 L 253.800 209.400 253.688 204.300 L 253.576 199.200 258.600 199.200 L 263.624 199.200 263.512 204.300 M283.112 204.300 L 283.000 209.400 278.200 209.400 L 273.400 209.400 273.288 204.300 L 273.176 199.200 278.200 199.200 L 283.224 199.200 283.112 204.300 M126.548 223.900 L 126.600 228.799 121.900 228.800 L 117.200 228.800 117.200 223.787 L 117.200 218.775 121.848 218.887 L 126.496 219.000 126.548 223.900 M146.000 223.800 L 146.000 228.800 141.400 228.800 L 136.800 228.800 136.800 223.800 L 136.800 218.800 141.400 218.800 L 146.000 218.800 146.000 223.800 M165.600 223.800 L 165.600 228.800 161.000 228.800 L 156.400 228.800 156.400 223.800 L 156.400 218.800 161.000 218.800 L 165.600 218.800 165.600 223.800 M185.200 223.800 L 185.200 228.800 180.500 228.800 L 175.800 228.800 175.871 224.100 C 175.910 221.515,175.955 219.265,175.971 219.100 C 175.987 218.935,178.070 218.800,180.600 218.800 L 185.200 218.800 185.200 223.800 M224.400 223.600 C 224.400 226.240,224.400 228.535,224.400 228.700 C 224.400 228.865,222.195 229.000,219.500 229.000 C 215.825 229.000,214.610 228.875,214.640 228.500 C 214.662 228.225,214.707 225.930,214.740 223.400 L 214.800 218.800 219.600 218.800 L 224.400 218.800 224.400 223.600 M243.912 223.900 L 243.800 229.000 239.000 229.000 C 235.405 229.000,234.210 228.874,234.240 228.500 C 234.262 228.225,234.307 225.930,234.340 223.400 L 234.400 218.800 239.212 218.800 L 244.024 218.800 243.912 223.900 M263.512 223.900 L 263.400 229.000 258.600 229.000 L 253.800 229.000 253.700 223.900 L 253.599 218.800 258.611 218.800 L 263.624 218.800 263.512 223.900 M283.106 223.900 L 283.000 229.000 278.200 229.000 L 273.400 229.000 273.288 223.900 L 273.176 218.800 278.194 218.800 L 283.212 218.800 283.106 223.900 M224.200 243.400 L 224.200 248.600 219.600 248.573 L 215.000 248.546 214.800 243.438 C 214.560 237.319,213.994 237.953,219.579 238.088 L 224.200 238.200 224.200 243.400 M243.800 243.400 L 243.800 248.600 239.400 248.604 C 236.980 248.606,234.820 248.559,234.600 248.500 C 234.306 248.420,234.131 239.956,234.385 238.087 C 234.393 238.025,236.515 238.025,239.100 238.087 L 243.800 238.200 243.800 243.400 M263.400 243.400 L 263.400 248.600 258.600 248.535 L 253.800 248.471 253.719 243.735 C 253.612 237.438,253.157 237.955,258.692 238.087 L 263.400 238.200 263.400 243.400 M283.000 243.400 L 283.000 248.600 278.200 248.529 L 273.400 248.457 273.287 243.752 C 273.136 237.483,272.720 237.954,278.292 238.087 L 283.000 238.200 283.000 243.400 M126.429 239.700 C 126.445 240.415,126.458 242.620,126.457 244.600 L 126.456 248.200 121.828 248.313 L 117.200 248.425 117.200 243.413 L 117.200 238.400 121.800 238.400 L 126.400 238.400 126.429 239.700 M146.000 243.400 L 146.000 248.400 141.400 248.400 L 136.800 248.400 136.800 243.400 L 136.800 238.400 141.400 238.400 L 146.000 238.400 146.000 243.400 M165.600 243.400 L 165.600 248.400 161.000 248.400 L 156.400 248.400 156.400 243.400 L 156.400 238.400 161.000 238.400 L 165.600 238.400 165.600 243.400 M185.200 243.400 L 185.200 248.400 180.500 248.400 L 175.800 248.401 175.891 243.500 C 175.941 240.805,175.986 238.555,175.991 238.500 C 175.996 238.445,178.070 238.400,180.600 238.400 L 185.200 238.400 185.200 243.400 M126.470 282.400 L 126.498 287.400 121.849 287.513 L 117.200 287.625 117.200 282.679 C 117.200 276.716,116.805 277.151,122.100 277.288 L 126.442 277.400 126.470 282.400 M146.000 282.400 L 146.000 287.600 141.400 287.600 L 136.800 287.600 136.800 282.667 C 136.800 276.731,136.382 277.200,141.667 277.200 L 146.000 277.200 146.000 282.400 M165.512 282.500 L 165.624 287.600 161.012 287.600 L 156.400 287.600 156.400 282.371 L 156.400 277.141 160.900 277.271 L 165.400 277.400 165.512 282.500 M185.112 282.513 L 185.224 287.626 180.570 287.513 L 175.916 287.400 175.937 282.500 C 175.949 279.805,175.968 277.504,175.979 277.387 C 175.991 277.270,178.025 277.225,180.500 277.287 L 185.000 277.400 185.112 282.513 M224.433 277.365 C 224.525 277.456,224.545 279.796,224.477 282.565 L 224.354 287.600 219.600 287.600 L 214.846 287.600 214.723 282.565 C 214.576 276.536,213.972 277.200,219.600 277.200 C 222.167 277.200,224.342 277.274,224.433 277.365 M243.912 282.500 L 244.024 287.600 239.235 287.600 L 234.447 287.600 234.324 282.700 C 234.256 280.005,234.259 277.659,234.331 277.488 C 234.403 277.316,236.563 277.226,239.131 277.288 L 243.800 277.400 243.912 282.500 M263.400 282.400 L 263.400 287.400 258.600 287.400 L 253.800 287.400 253.700 282.800 C 253.568 276.685,253.143 277.154,258.692 277.287 L 263.400 277.400 263.400 282.400 M283.000 282.400 L 283.000 287.400 278.100 287.512 L 273.200 287.625 273.200 282.400 L 273.200 277.175 278.100 277.288 L 283.000 277.400 283.000 282.400 M126.483 302.000 L 126.483 307.000 121.941 307.000 L 117.400 307.000 117.286 302.424 C 117.134 296.320,116.763 296.753,122.035 296.887 L 126.484 297.000 126.483 302.000 M145.912 301.900 L 145.800 307.000 141.400 307.000 L 137.000 307.000 136.888 301.900 L 136.776 296.800 141.400 296.800 L 146.024 296.800 145.912 301.900 M263.400 302.000 L 263.400 307.000 258.600 307.000 L 253.800 307.000 253.686 302.424 C 253.534 296.303,253.126 296.754,258.692 296.887 L 263.400 297.000 263.400 302.000 M283.000 302.000 L 283.000 307.000 278.100 307.112 L 273.200 307.225 273.200 302.000 L 273.200 296.775 278.100 296.888 L 283.000 297.000 283.000 302.000 M182.023 307.702 L 180.837 308.972 180.918 322.186 L 181.000 335.400 200.000 335.400 L 219.000 335.400 219.116 322.408 L 219.231 309.416 217.590 307.900 L 215.949 306.385 199.580 306.409 L 183.210 306.433 182.023 307.702 M185.380 307.968 C 185.505 308.170,185.311 308.632,184.949 308.993 C 184.094 309.849,183.218 309.143,183.986 308.217 C 184.567 307.517,185.048 307.431,185.380 307.968 M263.513 321.633 L 263.400 326.600 258.600 326.600 L 253.800 326.600 253.800 321.600 L 253.800 316.600 258.400 316.400 C 264.075 316.153,263.647 315.716,263.513 321.633 M126.469 321.552 L 126.497 326.503 121.948 326.474 L 117.400 326.446 117.288 321.410 L 117.176 316.374 121.809 316.487 L 126.442 316.600 126.469 321.552 M146.000 321.375 L 146.000 326.350 141.565 326.475 C 136.221 326.626,136.800 327.251,136.800 321.333 L 136.800 316.400 141.400 316.400 L 146.000 316.400 146.000 321.375 M283.000 321.600 L 283.000 326.600 278.200 326.600 L 273.400 326.600 273.288 321.488 L 273.176 316.375 278.088 316.488 L 283.000 316.600 283.000 321.600 " stroke="none" fill="#f6ad08" fill-rule="evenodd"></path><path id="path2" d="M189.715 48.547 L 185.231 53.087 185.253 62.843 L 185.275 72.600 163.299 72.703 L 141.324 72.807 124.262 89.867 L 107.200 106.927 107.200 123.864 L 107.200 140.800 97.800 140.800 L 88.400 140.800 88.400 165.187 L 88.400 189.575 93.100 189.687 L 97.800 189.800 97.901 265.424 L 98.002 341.048 105.402 348.424 L 112.803 355.800 136.901 356.000 L 161.000 356.200 161.107 365.500 L 161.215 374.800 175.400 374.800 L 189.585 374.800 189.693 365.500 L 189.800 356.200 199.600 356.200 L 209.400 356.200 209.507 365.500 L 209.615 374.800 224.200 374.800 L 238.785 374.800 238.893 365.500 L 239.000 356.200 262.702 356.000 L 286.404 355.800 294.201 348.040 L 301.998 340.281 302.099 265.040 L 302.200 189.800 307.300 189.688 L 312.400 189.576 312.400 165.188 L 312.400 140.800 302.600 140.800 L 292.800 140.800 292.800 123.840 L 292.800 106.880 275.749 89.840 L 258.698 72.800 236.749 72.800 L 214.800 72.800 214.794 63.100 C 214.790 57.701,214.620 53.134,214.409 52.800 C 214.201 52.470,212.180 50.355,209.918 48.100 L 205.805 44.000 200.002 44.003 L 194.200 44.007 189.715 48.547 M203.300 53.057 L 204.800 53.305 204.800 67.652 L 204.800 82.000 229.191 82.000 L 253.581 82.000 268.186 96.556 L 282.790 111.112 282.895 130.856 L 283.000 150.600 292.600 150.679 L 302.200 150.758 302.305 165.379 L 302.410 180.000 297.805 180.000 L 293.200 180.000 293.200 257.862 L 293.200 335.724 287.858 341.065 L 282.517 346.407 260.758 346.303 L 239.000 346.200 239.000 326.313 L 239.000 306.426 236.922 304.254 C 235.780 303.059,234.671 302.018,234.458 301.941 C 234.246 301.863,233.002 300.792,231.695 299.561 L 229.317 297.322 212.359 297.177 C 203.031 297.097,189.661 297.069,182.648 297.116 L 169.895 297.200 165.475 301.565 L 161.054 305.929 161.027 326.065 L 161.000 346.200 139.241 346.303 L 117.483 346.407 112.141 341.007 L 106.800 335.606 106.800 257.803 L 106.800 180.000 102.195 180.000 L 97.590 180.000 97.695 165.371 L 97.800 150.742 106.833 150.784 C 111.801 150.807,116.166 150.711,116.533 150.570 C 117.143 150.336,117.200 148.637,117.200 130.606 L 117.200 110.898 131.877 96.449 L 146.555 82.000 170.877 82.000 L 195.200 82.000 195.200 67.627 L 195.200 53.253 196.300 53.087 C 198.132 52.809,201.709 52.794,203.300 53.057 M228.290 307.387 L 229.221 308.470 229.111 336.535 L 229.000 364.600 224.300 364.713 L 219.600 364.825 219.600 355.213 L 219.600 345.600 199.987 345.600 L 180.374 345.600 180.415 355.100 L 180.457 364.600 175.428 364.712 L 170.400 364.824 170.388 354.912 C 170.382 349.460,170.387 336.817,170.400 326.815 L 170.423 308.629 171.551 307.527 C 172.959 306.150,174.037 306.108,205.379 306.223 L 227.358 306.304 228.290 307.387 M257.300 326.287 C 257.905 326.378,258.895 326.378,259.500 326.287 C 260.105 326.195,259.610 326.120,258.400 326.120 C 257.190 326.120,256.695 326.195,257.300 326.287 M276.713 326.295 C 277.876 326.376,279.676 326.376,280.713 326.293 C 281.751 326.211,280.800 326.145,278.600 326.146 C 276.400 326.147,275.551 326.214,276.713 326.295 " stroke="none" fill="#0c0b0d" fill-rule="evenodd"></path><path id="path3" d="M195.399 180.058 C 195.093 180.858,195.354 296.288,195.663 296.597 C 195.808 296.741,203.441 296.965,212.625 297.093 L 229.323 297.327 231.698 299.564 C 233.004 300.794,234.246 301.863,234.458 301.941 C 234.671 302.018,235.780 303.059,236.922 304.254 L 239.000 306.426 239.000 326.313 L 239.000 346.200 260.758 346.303 L 282.517 346.407 287.858 341.065 L 293.200 335.724 293.200 257.862 L 293.200 180.000 245.033 180.000 C 218.541 180.000,196.582 179.891,196.236 179.758 C 195.885 179.624,195.515 179.756,195.399 180.058 M106.800 257.779 L 106.800 335.559 107.800 336.638 C 108.350 337.231,108.800 337.538,108.800 337.320 C 108.800 337.102,108.439 336.597,107.998 336.198 C 107.200 335.476,107.196 335.094,107.298 257.736 C 107.354 214.981,107.265 180.000,107.100 180.000 C 106.935 180.000,106.800 215.001,106.800 257.779 M292.800 262.663 L 292.800 335.327 287.500 340.656 L 282.200 345.985 260.700 345.993 L 239.200 346.000 239.200 336.420 L 239.200 326.840 241.500 326.720 L 243.800 326.600 243.912 321.520 L 244.024 316.441 241.712 316.320 L 239.400 316.200 239.287 311.700 L 239.174 307.200 241.587 307.200 L 244.000 307.200 244.000 302.000 L 244.000 296.800 239.200 296.800 L 234.400 296.800 234.400 298.800 C 234.400 301.283,234.198 301.283,231.762 298.801 L 229.800 296.801 217.300 296.801 L 204.800 296.800 204.800 243.400 L 204.800 190.000 248.800 190.000 L 292.800 190.000 292.800 262.663 M117.288 204.210 L 117.400 209.246 121.948 209.274 L 126.497 209.303 126.469 204.352 L 126.442 199.400 121.809 199.287 L 117.176 199.174 117.288 204.210 M136.800 204.133 C 136.800 210.051,136.221 209.426,141.565 209.275 L 146.000 209.150 146.000 204.175 L 146.000 199.200 141.400 199.200 L 136.800 199.200 136.800 204.133 M156.400 204.175 L 156.400 209.150 160.835 209.275 C 166.179 209.426,165.600 210.051,165.600 204.133 L 165.600 199.200 161.000 199.200 L 156.400 199.200 156.400 204.175 M175.992 199.287 C 175.833 201.610,175.936 209.029,176.130 209.100 C 176.278 209.155,178.386 209.200,180.812 209.200 L 185.225 209.200 185.112 204.300 L 185.000 199.400 180.500 199.287 C 178.025 199.225,175.997 199.225,175.992 199.287 M214.790 199.300 C 214.784 199.355,214.762 201.650,214.741 204.400 L 214.703 209.400 219.551 209.400 C 222.218 209.400,224.400 209.265,224.400 209.100 C 224.400 208.935,224.400 206.640,224.400 204.000 L 224.400 199.200 219.600 199.200 C 216.960 199.200,214.795 199.245,214.790 199.300 M234.390 199.300 C 234.384 199.355,234.362 201.650,234.341 204.400 L 234.303 209.400 239.051 209.400 L 243.800 209.400 243.912 204.300 L 244.024 199.200 239.212 199.200 C 236.565 199.200,234.395 199.245,234.390 199.300 M253.688 204.300 L 253.800 209.400 258.600 209.400 L 263.400 209.400 263.512 204.300 L 263.624 199.200 258.600 199.200 L 253.576 199.200 253.688 204.300 M273.288 204.300 L 273.400 209.400 278.200 209.400 L 283.000 209.400 283.112 204.300 L 283.224 199.200 278.200 199.200 L 273.176 199.200 273.288 204.300 M117.200 223.787 L 117.200 228.800 121.900 228.800 L 126.600 228.799 126.548 223.900 L 126.496 219.000 121.848 218.887 L 117.200 218.775 117.200 223.787 M136.800 223.800 L 136.800 228.800 141.400 228.800 L 146.000 228.800 146.000 223.800 L 146.000 218.800 141.400 218.800 L 136.800 218.800 136.800 223.800 M156.400 223.800 L 156.400 228.800 161.000 228.800 L 165.600 228.800 165.600 223.800 L 165.600 218.800 161.000 218.800 L 156.400 218.800 156.400 223.800 M175.971 219.100 C 175.955 219.265,175.910 221.515,175.871 224.100 L 175.800 228.800 180.500 228.800 L 185.200 228.800 185.200 223.800 L 185.200 218.800 180.600 218.800 C 178.070 218.800,175.987 218.935,175.971 219.100 M214.740 223.400 C 214.707 225.930,214.662 228.225,214.640 228.500 C 214.610 228.875,215.825 229.000,219.500 229.000 C 222.195 229.000,224.400 228.865,224.400 228.700 C 224.400 228.535,224.400 226.240,224.400 223.600 L 224.400 218.800 219.600 218.800 L 214.800 218.800 214.740 223.400 M234.340 223.400 C 234.307 225.930,234.262 228.225,234.240 228.500 C 234.210 228.874,235.405 229.000,239.000 229.000 L 243.800 229.000 243.912 223.900 L 244.024 218.800 239.212 218.800 L 234.400 218.800 234.340 223.400 M253.700 223.900 L 253.800 229.000 258.600 229.000 L 263.400 229.000 263.512 223.900 L 263.624 218.800 258.611 218.800 L 253.599 218.800 253.700 223.900 M273.288 223.900 L 273.400 229.000 278.200 229.000 L 283.000 229.000 283.106 223.900 L 283.212 218.800 278.194 218.800 L 273.176 218.800 273.288 223.900 M214.779 238.153 C 214.680 238.250,214.690 240.629,214.800 243.438 L 215.000 248.546 219.600 248.573 L 224.200 248.600 224.200 243.400 L 224.200 238.200 219.579 238.088 C 217.037 238.026,214.877 238.056,214.779 238.153 M234.385 238.087 C 234.131 239.956,234.306 248.420,234.600 248.500 C 234.820 248.559,236.980 248.606,239.400 248.604 L 243.800 248.600 243.800 243.400 L 243.800 238.200 239.100 238.087 C 236.515 238.025,234.393 238.025,234.385 238.087 M253.812 238.487 C 253.717 238.769,253.675 241.131,253.719 243.735 L 253.800 248.471 258.600 248.535 L 263.400 248.600 263.400 243.400 L 263.400 238.200 258.692 238.087 C 255.140 238.002,253.942 238.100,253.812 238.487 M273.379 238.511 C 273.266 238.805,273.224 241.164,273.287 243.752 L 273.400 248.457 278.200 248.529 L 283.000 248.600 283.000 243.400 L 283.000 238.200 278.292 238.087 C 274.646 238.000,273.538 238.095,273.379 238.511 M117.200 243.413 L 117.200 248.425 121.828 248.313 L 126.456 248.200 126.457 244.600 C 126.458 242.620,126.445 240.415,126.429 239.700 L 126.400 238.400 121.800 238.400 L 117.200 238.400 117.200 243.413 M136.800 243.400 L 136.800 248.400 141.400 248.400 L 146.000 248.400 146.000 243.400 L 146.000 238.400 141.400 238.400 L 136.800 238.400 136.800 243.400 M156.400 243.400 L 156.400 248.400 161.000 248.400 L 165.600 248.400 165.600 243.400 L 165.600 238.400 161.000 238.400 L 156.400 238.400 156.400 243.400 M175.991 238.500 C 175.986 238.555,175.941 240.805,175.891 243.500 L 175.800 248.401 180.500 248.400 L 185.200 248.400 185.200 243.400 L 185.200 238.400 180.600 238.400 C 178.070 238.400,175.996 238.445,175.991 238.500 M117.479 277.454 C 117.326 277.608,117.200 279.959,117.200 282.679 L 117.200 287.625 121.849 287.513 L 126.498 287.400 126.470 282.400 L 126.442 277.400 122.100 277.288 C 119.712 277.226,117.632 277.301,117.479 277.454 M137.067 277.467 C 136.920 277.613,136.800 279.953,136.800 282.667 L 136.800 287.600 141.400 287.600 L 146.000 287.600 146.000 282.400 L 146.000 277.200 141.667 277.200 C 139.283 277.200,137.213 277.320,137.067 277.467 M156.400 282.371 L 156.400 287.600 161.012 287.600 L 165.624 287.600 165.512 282.500 L 165.400 277.400 160.900 277.271 L 156.400 277.141 156.400 282.371 M175.979 277.387 C 175.968 277.504,175.949 279.805,175.937 282.500 L 175.916 287.400 180.570 287.513 L 185.224 287.626 185.112 282.513 L 185.000 277.400 180.500 277.287 C 178.025 277.225,175.991 277.270,175.979 277.387 M214.767 277.365 C 214.675 277.456,214.655 279.796,214.723 282.565 L 214.846 287.600 219.600 287.600 L 224.354 287.600 224.477 282.565 C 224.624 276.536,225.228 277.200,219.600 277.200 C 217.033 277.200,214.858 277.274,214.767 277.365 M234.331 277.488 C 234.259 277.659,234.256 280.005,234.324 282.700 L 234.447 287.600 239.235 287.600 L 244.024 287.600 243.912 282.500 L 243.800 277.400 239.131 277.288 C 236.563 277.226,234.403 277.316,234.331 277.488 M253.793 277.687 C 253.687 277.969,253.645 280.270,253.700 282.800 L 253.800 287.400 258.600 287.400 L 263.400 287.400 263.400 282.400 L 263.400 277.400 258.692 277.287 C 255.147 277.202,253.937 277.301,253.793 277.687 M273.200 282.400 L 273.200 287.625 278.100 287.512 L 283.000 287.400 283.000 282.400 L 283.000 277.400 278.100 277.288 L 273.200 277.175 273.200 282.400 M117.379 297.311 C 117.265 297.607,117.224 299.908,117.286 302.424 L 117.400 307.000 121.941 307.000 L 126.483 307.000 126.483 302.000 L 126.484 297.000 122.035 296.887 C 118.597 296.799,117.538 296.896,117.379 297.311 M136.888 301.900 L 137.000 307.000 141.400 307.000 L 145.800 307.000 145.912 301.900 L 146.024 296.800 141.400 296.800 L 136.776 296.800 136.888 301.900 M156.400 302.050 L 156.400 307.299 158.600 307.117 L 160.800 306.934 160.800 311.667 L 160.800 316.400 158.600 316.400 L 156.400 316.400 156.400 321.400 L 156.400 326.400 158.588 326.400 L 160.775 326.400 160.888 331.300 C 160.949 333.995,161.021 329.375,161.046 321.034 L 161.092 305.869 163.704 303.332 C 165.141 301.937,166.155 300.696,165.958 300.574 C 165.761 300.452,165.600 299.553,165.600 298.576 L 165.600 296.800 161.000 296.800 L 156.400 296.800 156.400 302.050 M169.400 297.114 C 169.180 297.281,168.370 298.133,167.601 299.008 L 166.201 300.600 167.919 299.000 L 169.637 297.400 182.519 297.189 L 195.400 296.978 182.600 296.895 C 175.560 296.850,169.620 296.948,169.400 297.114 M253.779 297.312 C 253.665 297.607,253.624 299.908,253.686 302.424 L 253.800 307.000 258.600 307.000 L 263.400 307.000 263.400 302.000 L 263.400 297.000 258.692 296.887 C 255.041 296.800,253.938 296.895,253.779 297.312 M273.200 302.000 L 273.200 307.225 278.100 307.112 L 283.000 307.000 283.000 302.000 L 283.000 297.000 278.100 296.888 L 273.200 296.775 273.200 302.000 M178.039 306.299 C 172.804 306.421,172.652 306.450,171.551 307.526 L 170.424 308.628 170.312 326.882 L 170.200 345.136 171.600 345.314 C 172.370 345.412,185.645 345.485,201.100 345.476 L 229.200 345.460 229.200 326.952 L 229.200 308.445 228.296 307.394 L 227.392 306.343 206.396 306.232 C 188.013 306.134,187.320 306.150,200.829 306.360 L 216.258 306.600 217.743 308.000 L 219.228 309.400 219.114 322.400 L 219.000 335.400 200.000 335.400 L 181.000 335.400 180.924 322.200 C 180.841 307.687,180.791 308.003,183.430 306.471 C 183.854 306.225,184.020 306.058,183.800 306.100 C 183.580 306.141,180.988 306.231,178.039 306.299 M183.986 308.217 C 183.218 309.143,184.094 309.849,184.949 308.993 C 185.580 308.363,185.512 307.600,184.825 307.600 C 184.645 307.600,184.268 307.878,183.986 308.217 M258.400 316.400 L 253.800 316.600 253.800 321.600 L 253.800 326.600 258.600 326.600 L 263.400 326.600 263.513 321.633 C 263.647 315.716,264.075 316.153,258.400 316.400 M117.288 321.410 L 117.400 326.446 121.948 326.474 L 126.497 326.503 126.469 321.552 L 126.442 316.600 121.809 316.487 L 117.176 316.374 117.288 321.410 M136.800 321.333 C 136.800 327.251,136.221 326.626,141.565 326.475 L 146.000 326.350 146.000 321.375 L 146.000 316.400 141.400 316.400 L 136.800 316.400 136.800 321.333 M273.288 321.488 L 273.400 326.600 278.200 326.600 L 283.000 326.600 283.000 321.600 L 283.000 316.600 278.088 316.488 L 273.176 316.375 273.288 321.488 M259.500 326.287 C 258.895 326.378,257.905 326.378,257.300 326.287 C 256.695 326.195,257.190 326.120,258.400 326.120 C 259.610 326.120,260.105 326.195,259.500 326.287 M280.713 326.293 C 279.676 326.376,277.876 326.376,276.713 326.295 C 275.551 326.214,276.400 326.147,278.600 326.146 C 280.800 326.145,281.751 326.211,280.713 326.293 M109.200 337.744 C 109.200 337.924,110.910 339.782,113.000 341.872 C 115.090 343.962,116.800 345.517,116.800 345.328 C 116.800 345.139,115.090 343.281,113.000 341.200 C 110.910 339.119,109.200 337.563,109.200 337.744 " stroke="none" fill="#b24a11" fill-rule="evenodd"></path><path id="path4" d="M189.693 48.106 C 187.222 50.585,185.200 52.726,185.200 52.865 C 185.200 53.004,187.225 51.068,189.700 48.562 L 194.200 44.007 199.991 44.003 L 205.782 44.000 208.991 47.100 L 212.200 50.200 209.009 46.900 L 205.819 43.600 200.003 43.600 L 194.187 43.600 189.693 48.106 M213.429 51.638 C 214.073 52.429,214.681 53.008,214.779 52.925 C 214.878 52.842,214.351 52.195,213.609 51.487 L 212.258 50.200 213.429 51.638 M198.500 53.091 C 199.325 53.178,200.675 53.178,201.500 53.091 C 202.325 53.005,201.650 52.934,200.000 52.934 C 198.350 52.934,197.675 53.005,198.500 53.091 M195.295 67.500 L 195.389 81.800 195.500 67.820 C 195.584 57.252,195.731 53.764,196.105 53.526 C 196.454 53.305,196.393 53.210,195.900 53.206 C 195.245 53.200,195.206 54.110,195.295 67.500 M203.860 53.506 C 204.112 53.668,204.403 54.250,204.505 54.800 C 204.663 55.647,204.699 55.601,204.746 54.500 C 204.787 53.506,204.635 53.201,204.100 53.206 C 203.650 53.210,203.564 53.317,203.860 53.506 M139.546 74.041 C 138.966 74.679,138.620 75.200,138.776 75.200 C 139.168 75.200,140.977 73.241,140.768 73.043 C 140.676 72.954,140.126 73.404,139.546 74.041 M259.200 73.039 C 259.200 73.500,262.795 76.938,263.031 76.703 C 263.114 76.620,262.286 75.669,261.191 74.591 C 260.096 73.512,259.200 72.814,259.200 73.039 M135.002 78.615 C 133.734 79.833,132.775 80.909,132.871 81.005 C 132.967 81.101,134.110 80.104,135.410 78.790 C 138.387 75.781,138.085 75.653,135.002 78.615 M264.976 79.112 C 266.063 80.250,267.040 81.093,267.148 80.985 C 267.256 80.877,266.697 80.196,265.906 79.472 C 263.368 77.147,262.943 76.983,264.976 79.112 M132.675 95.653 C 125.028 103.162,118.861 109.394,118.969 109.503 C 119.078 109.611,123.089 105.714,127.883 100.843 L 136.600 91.986 151.400 91.981 C 162.374 91.977,165.993 91.862,165.400 91.536 C 164.960 91.294,162.800 89.275,160.600 87.048 L 156.600 83.000 152.248 82.863 C 148.284 82.739,147.791 82.804,146.717 83.598 C 146.068 84.078,145.435 84.369,145.311 84.245 C 145.187 84.120,145.381 83.905,145.743 83.767 C 146.104 83.628,146.400 83.269,146.400 82.969 C 146.400 82.544,147.522 82.396,151.500 82.299 L 156.600 82.174 151.589 82.087 L 146.578 82.000 132.675 95.653 M248.400 82.308 C 253.169 82.435,253.433 82.487,254.119 83.421 C 254.514 83.959,254.649 84.400,254.419 84.400 C 254.188 84.400,254.000 84.249,254.000 84.064 C 254.000 83.286,251.714 82.800,248.081 82.806 C 243.491 82.813,244.167 82.452,238.809 87.755 L 234.519 92.000 248.777 92.000 L 263.034 92.000 267.417 96.310 C 274.462 103.238,273.659 101.153,273.614 112.403 L 273.575 122.099 277.468 126.049 C 279.610 128.222,281.505 130.000,281.681 130.000 C 281.856 130.000,282.000 125.992,282.000 121.094 L 282.000 112.189 278.200 108.314 C 276.110 106.183,274.400 104.330,274.400 104.196 C 274.400 103.764,275.370 104.529,276.600 105.931 C 278.668 108.288,281.672 111.200,282.037 111.200 C 282.229 111.200,282.438 115.745,282.500 121.300 L 282.614 131.400 282.707 121.261 L 282.800 111.122 268.191 96.561 L 253.581 82.000 248.491 82.087 L 243.400 82.174 248.400 82.308 M128.600 85.031 C 125.799 88.078,125.827 88.177,128.710 85.413 C 130.079 84.099,131.200 82.974,131.200 82.913 C 131.200 82.447,130.307 83.174,128.600 85.031 M270.990 85.190 C 272.290 86.504,273.426 87.507,273.514 87.419 C 273.728 87.206,269.380 82.800,268.956 82.800 C 268.774 82.800,269.689 83.875,270.990 85.190 M144.162 85.682 C 142.725 87.346,141.482 88.554,141.641 88.133 C 141.919 87.398,144.185 84.819,144.562 84.809 C 144.761 84.804,144.581 85.197,144.162 85.682 M260.559 90.077 C 261.197 90.695,261.542 91.200,261.326 91.200 C 260.821 91.200,256.400 86.534,256.400 86.001 C 256.400 85.779,257.075 86.353,257.900 87.276 C 258.725 88.199,259.922 89.459,260.559 90.077 M123.850 89.692 C 123.217 90.301,122.871 90.800,123.080 90.800 C 123.509 90.800,125.429 88.863,125.168 88.694 C 125.076 88.633,124.482 89.083,123.850 89.692 M120.746 92.841 C 120.166 93.479,119.820 94.000,119.976 94.000 C 120.368 94.000,122.177 92.041,121.968 91.843 C 121.876 91.754,121.326 92.204,120.746 92.841 M278.000 91.717 C 278.000 92.155,279.933 94.204,280.136 93.981 C 280.226 93.881,279.782 93.260,279.150 92.600 C 278.518 91.940,278.001 91.543,278.000 91.717 M283.026 97.197 C 284.518 98.736,285.821 99.913,285.921 99.812 C 286.133 99.601,281.014 94.400,280.594 94.400 C 280.439 94.400,281.534 95.659,283.026 97.197 M116.078 97.464 C 113.203 100.477,113.649 100.582,116.610 97.590 C 117.911 96.275,118.801 95.209,118.587 95.220 C 118.374 95.231,117.245 96.240,116.078 97.464 M111.800 101.762 C 110.170 103.505,109.902 104.151,111.405 102.713 C 112.260 101.896,112.879 101.155,112.780 101.067 C 112.681 100.979,112.240 101.292,111.800 101.762 M289.422 103.582 C 290.493 104.673,291.454 105.480,291.557 105.376 C 291.775 105.159,288.201 101.600,287.765 101.600 C 287.606 101.600,288.352 102.492,289.422 103.582 M108.100 105.417 L 106.800 106.644 106.800 123.515 L 106.800 140.385 97.700 140.500 L 88.600 140.616 97.900 140.708 L 107.200 140.800 107.200 123.794 L 107.200 106.789 108.500 105.627 C 109.215 104.989,109.710 104.404,109.600 104.328 C 109.490 104.252,108.815 104.742,108.100 105.417 M292.000 105.951 C 292.000 106.198,292.180 106.400,292.400 106.400 C 292.660 106.400,292.800 112.400,292.800 123.600 L 292.800 140.800 302.700 140.707 L 312.600 140.615 302.900 140.500 L 293.200 140.386 293.200 123.442 C 293.200 108.869,293.116 106.428,292.600 106.000 C 292.185 105.656,292.000 105.641,292.000 105.951 M117.592 110.610 C 116.844 111.511,117.278 111.615,118.170 110.748 C 118.593 110.337,118.751 110.000,118.519 110.000 C 118.287 110.000,117.870 110.274,117.592 110.610 M215.031 112.265 C 214.622 113.328,214.808 131.200,215.227 131.200 C 215.447 131.200,215.600 127.276,215.600 121.629 C 215.600 112.851,215.658 112.044,216.300 111.876 C 216.852 111.731,216.819 111.683,216.143 111.646 C 215.671 111.621,215.171 111.899,215.031 112.265 M262.414 121.400 C 262.436 127.186,262.605 131.200,262.826 131.200 C 263.048 131.200,263.200 127.213,263.200 121.400 C 263.200 114.944,263.059 111.600,262.788 111.600 C 262.516 111.600,262.389 114.919,262.414 121.400 M223.773 121.800 C 223.773 127.080,223.830 129.185,223.899 126.477 C 223.968 123.769,223.968 119.449,223.899 116.877 C 223.829 114.305,223.772 116.520,223.773 121.800 M254.000 121.776 C 254.000 127.332,254.153 131.200,254.373 131.200 C 254.904 131.200,254.943 112.936,254.412 112.608 C 254.134 112.435,254.000 115.408,254.000 121.776 M195.482 145.700 L 195.564 150.600 239.282 150.702 L 283.000 150.805 282.807 145.702 L 282.615 140.600 282.388 145.400 L 282.161 150.200 282.080 145.500 L 282.000 140.800 238.700 140.800 L 195.400 140.799 195.482 145.700 M97.599 179.700 C 97.600 179.865,99.805 179.969,102.500 179.930 C 107.473 179.859,106.882 179.703,100.899 179.508 C 99.084 179.448,97.599 179.535,97.599 179.700 M249.200 179.600 L 196.200 179.804 249.300 179.902 C 284.499 179.967,302.400 179.865,302.400 179.600 C 302.400 179.380,302.355 179.244,302.300 179.298 C 302.245 179.352,278.350 179.488,249.200 179.600 M88.261 189.700 C 88.363 189.865,90.507 190.000,93.024 190.000 L 97.600 190.000 97.600 265.525 L 97.600 341.050 98.900 342.225 L 100.200 343.400 99.101 342.179 L 98.002 340.958 97.901 265.379 L 97.800 189.800 92.937 189.600 C 90.262 189.490,88.158 189.535,88.261 189.700 M302.267 189.867 C 302.120 190.013,302.000 223.888,302.000 265.145 L 302.000 340.156 300.900 341.363 C 300.237 342.090,300.118 342.345,300.600 342.004 C 301.040 341.694,301.625 341.171,301.900 340.843 C 302.296 340.371,302.400 324.640,302.400 265.135 L 302.400 190.024 307.500 189.899 L 312.600 189.774 307.567 189.687 C 304.798 189.639,302.413 189.720,302.267 189.867 M160.886 340.900 L 160.800 346.000 139.033 346.000 C 124.567 346.000,117.198 345.862,117.063 345.590 C 116.951 345.365,116.906 345.410,116.963 345.690 C 117.118 346.455,160.732 346.644,161.025 345.880 C 161.136 345.590,161.169 343.204,161.099 340.577 L 160.972 335.800 160.886 340.900 M100.400 343.710 C 100.400 343.771,101.795 345.166,103.500 346.810 L 106.600 349.800 103.610 346.700 C 100.833 343.821,100.400 343.417,100.400 343.710 M295.988 346.300 L 293.400 349.000 296.100 346.412 C 298.608 344.007,298.983 343.600,298.688 343.600 C 298.627 343.600,297.412 344.815,295.988 346.300 M170.400 355.079 L 170.400 364.824 175.401 364.712 C 178.152 364.650,180.402 364.465,180.401 364.300 C 180.401 364.135,180.400 359.785,180.400 354.633 L 180.400 345.266 175.400 345.300 L 170.400 345.334 170.400 355.079 M219.600 355.025 L 219.600 364.825 224.295 364.713 C 228.639 364.608,228.999 364.540,229.110 363.800 C 229.219 363.069,229.192 363.060,228.795 363.700 C 228.426 364.294,227.729 364.400,224.180 364.400 L 220.000 364.400 220.088 355.300 L 220.176 346.200 220.388 355.000 L 220.600 363.800 224.300 363.915 L 228.000 364.030 228.000 356.615 C 228.000 347.103,228.733 346.521,228.901 355.900 L 229.021 362.600 229.110 355.887 C 229.186 350.233,229.105 349.139,228.600 348.945 C 227.933 348.689,227.771 347.600,228.400 347.600 C 228.620 347.600,228.800 347.810,228.800 348.067 C 228.800 348.323,228.932 348.401,229.094 348.239 C 229.256 348.078,228.960 347.622,228.436 347.228 C 227.905 346.826,227.609 346.309,227.766 346.055 C 228.178 345.389,228.712 345.499,228.948 346.300 C 229.108 346.844,229.136 346.822,229.072 346.200 C 228.996 345.456,228.663 345.394,224.295 345.313 L 219.600 345.225 219.600 355.025 M180.000 355.600 L 180.000 364.400 176.100 364.324 L 172.200 364.249 175.800 364.024 L 179.400 363.800 179.508 355.300 C 179.567 350.625,179.702 346.800,179.808 346.800 C 179.914 346.800,180.000 350.760,180.000 355.600 M171.658 363.869 C 171.993 364.273,171.943 364.400,171.449 364.400 C 170.868 364.400,170.810 363.511,170.891 355.900 L 170.982 347.400 171.100 355.369 C 171.174 360.410,171.379 363.534,171.658 363.869 M109.609 353.049 L 112.600 356.299 136.693 356.349 L 160.785 356.400 160.893 365.700 L 161.000 375.000 175.400 375.000 L 189.800 375.000 189.907 365.700 L 190.015 356.400 199.600 356.400 L 209.185 356.400 209.293 365.700 L 209.400 375.000 224.200 375.000 L 239.000 375.000 239.107 365.700 L 239.215 356.400 262.707 356.387 C 281.126 356.377,286.330 356.265,286.800 355.866 C 287.130 355.586,288.570 354.106,289.999 352.578 L 292.598 349.800 289.394 352.897 L 286.189 355.994 262.594 356.097 L 239.000 356.200 238.893 365.500 L 238.785 374.800 224.200 374.800 L 209.615 374.800 209.507 365.500 L 209.400 356.200 199.600 356.200 L 189.800 356.200 189.693 365.500 L 189.585 374.800 175.400 374.800 L 161.215 374.800 161.107 365.500 L 161.000 356.200 137.006 356.097 L 113.011 355.994 109.815 352.897 L 106.618 349.800 109.609 353.049 " stroke="none" fill="#8b8a8b" fill-rule="evenodd"></path><path id="path5" d="M139.503 111.882 C 136.613 112.080,136.744 111.553,136.887 122.400 L 137.000 131.000 141.500 131.113 L 146.000 131.226 146.000 121.613 L 146.000 112.000 145.050 112.000 C 144.528 112.000,143.583 111.938,142.950 111.862 C 142.317 111.787,140.766 111.796,139.503 111.882 M157.100 111.876 C 156.458 112.044,156.400 112.851,156.400 121.629 L 156.400 131.200 161.000 131.200 L 165.600 131.200 165.600 121.652 L 165.600 112.105 164.100 111.857 C 162.431 111.581,158.184 111.592,157.100 111.876 M177.300 111.912 L 176.000 112.051 176.000 121.638 L 176.000 131.226 180.451 131.113 L 184.902 131.000 184.951 121.500 L 185.000 112.001 183.600 111.940 C 180.143 111.790,178.509 111.783,177.300 111.912 M216.300 111.876 C 215.658 112.044,215.600 112.851,215.600 121.629 L 215.600 131.200 219.600 131.200 L 223.600 131.200 223.600 121.776 C 223.600 115.596,223.738 112.438,224.000 112.600 C 224.220 112.736,224.400 112.680,224.400 112.476 C 224.400 111.769,218.406 111.325,216.300 111.876 M235.300 111.882 L 234.400 112.056 234.400 121.628 L 234.400 131.200 238.986 131.200 L 243.572 131.200 243.686 121.620 C 243.797 112.330,243.776 112.034,243.000 111.826 C 242.089 111.581,236.657 111.621,235.300 111.882 M254.800 111.958 C 253.720 112.153,253.563 112.277,254.114 112.498 C 254.771 112.763,254.824 113.504,254.785 121.893 L 254.742 131.000 258.599 131.000 L 262.457 131.000 262.415 121.615 C 262.384 114.723,262.243 112.148,261.886 111.921 C 261.324 111.564,256.854 111.587,254.800 111.958 M224.114 126.600 C 224.117 127.700,224.195 128.103,224.287 127.495 C 224.379 126.886,224.377 125.986,224.282 125.495 C 224.187 125.003,224.111 125.500,224.114 126.600 " stroke="none" fill="#6396f2" fill-rule="evenodd"></path><path id="path6" d="M188.791 48.700 L 185.400 52.200 188.900 48.809 C 190.825 46.944,192.400 45.369,192.400 45.309 C 192.400 45.018,191.941 45.449,188.791 48.700 M210.000 47.725 C 210.000 47.794,210.585 48.379,211.300 49.025 L 212.600 50.200 211.425 48.900 C 210.330 47.688,210.000 47.416,210.000 47.725 M184.974 62.400 C 184.974 68.010,185.030 70.305,185.099 67.500 C 185.168 64.695,185.168 60.105,185.099 57.300 C 185.030 54.495,184.974 56.790,184.974 62.400 M196.300 53.632 C 195.915 53.856,195.600 54.239,195.600 54.482 C 195.600 54.725,195.929 54.626,196.331 54.262 C 196.872 53.773,197.828 53.600,200.000 53.600 C 202.172 53.600,203.128 53.773,203.669 54.262 C 204.081 54.635,204.400 54.729,204.400 54.476 C 204.400 53.291,198.026 52.627,196.300 53.632 M214.971 62.800 C 214.971 67.750,215.028 69.775,215.099 67.300 C 215.169 64.825,215.169 60.775,215.099 58.300 C 215.028 55.825,214.971 57.850,214.971 62.800 M194.715 82.433 C 194.289 82.675,186.840 82.781,175.005 82.711 C 162.907 82.641,156.287 82.737,156.822 82.976 C 157.286 83.182,159.539 85.207,161.830 87.476 C 164.120 89.744,166.220 91.641,166.497 91.691 C 166.774 91.741,161.780 91.880,155.400 92.000 C 143.960 92.215,144.045 92.220,161.494 92.309 L 179.188 92.400 187.424 100.648 L 195.659 108.896 197.530 108.703 C 199.355 108.515,199.592 108.318,207.400 100.459 L 215.400 92.407 224.456 92.403 L 233.512 92.400 214.335 111.553 L 195.157 130.707 195.225 135.612 C 195.284 139.913,195.207 140.565,194.592 140.909 C 194.092 141.188,193.970 141.172,194.169 140.851 C 194.374 140.518,184.513 140.400,156.411 140.400 C 126.337 140.400,118.340 140.505,118.210 140.900 C 118.120 141.175,117.989 143.515,117.920 146.100 L 117.794 150.800 156.497 150.800 L 195.200 150.800 195.200 165.200 C 195.200 175.905,195.080 179.600,194.733 179.600 C 194.477 179.600,194.375 179.708,194.507 179.840 C 194.639 179.972,194.924 179.970,195.141 179.836 C 195.358 179.702,219.535 179.573,248.868 179.549 C 278.200 179.525,301.859 179.418,301.442 179.312 C 300.945 179.186,300.843 179.021,301.144 178.834 C 301.690 178.497,301.870 152.506,301.330 151.976 C 301.148 151.798,296.823 151.611,291.717 151.561 C 286.611 151.510,282.528 151.317,282.643 151.131 C 282.757 150.945,263.175 150.798,239.126 150.804 L 195.400 150.814 195.400 145.707 L 195.400 140.600 239.000 140.506 L 282.600 140.412 282.717 136.506 C 282.838 132.478,282.639 130.800,282.040 130.800 C 281.851 130.800,279.776 128.893,277.428 126.563 L 273.161 122.327 273.280 112.601 C 273.346 107.252,273.253 102.966,273.073 103.078 C 272.894 103.189,272.804 102.947,272.873 102.540 C 272.946 102.113,272.789 101.842,272.500 101.900 C 272.225 101.955,272.045 101.775,272.100 101.500 C 272.155 101.225,271.930 101.060,271.600 101.133 C 271.270 101.207,271.133 101.133,271.297 100.970 C 271.688 100.579,270.873 99.617,270.271 99.758 C 270.012 99.819,269.943 99.791,270.117 99.696 C 270.291 99.600,270.217 99.261,269.952 98.942 C 269.562 98.473,269.400 98.461,269.098 98.881 C 268.820 99.267,268.778 99.231,268.933 98.743 C 269.173 97.988,267.518 96.231,267.006 96.696 C 266.822 96.863,266.784 96.803,266.922 96.561 C 267.236 96.009,265.064 93.880,264.608 94.294 C 264.423 94.462,264.386 94.399,264.526 94.153 C 264.820 93.639,263.470 92.263,263.068 92.666 C 262.920 92.813,262.800 92.768,262.800 92.567 C 262.800 92.349,257.220 92.247,249.100 92.314 C 231.558 92.461,232.694 92.981,238.389 87.411 L 243.088 82.815 224.244 82.643 C 213.880 82.548,203.285 82.349,200.700 82.200 C 197.276 82.003,196.000 82.054,196.000 82.389 C 196.000 82.641,196.180 82.736,196.400 82.600 C 196.620 82.464,196.800 82.633,196.800 82.976 C 196.800 83.846,196.194 83.755,195.761 82.821 C 195.485 82.225,195.240 82.134,194.715 82.433 M201.300 82.689 C 200.585 82.778,199.415 82.778,198.700 82.689 C 197.985 82.601,198.570 82.528,200.000 82.528 C 201.430 82.528,202.015 82.601,201.300 82.689 M284.400 97.725 C 284.400 97.794,284.985 98.379,285.700 99.025 L 287.000 100.200 285.825 98.900 C 284.730 97.688,284.400 97.416,284.400 97.725 M125.861 103.132 C 125.497 103.535,125.334 104.000,125.499 104.166 C 125.665 104.331,125.530 104.407,125.200 104.333 C 124.836 104.253,124.653 104.436,124.733 104.800 C 124.807 105.130,124.731 105.265,124.566 105.099 C 124.140 104.673,122.765 106.013,123.074 106.553 C 123.214 106.799,123.176 106.861,122.989 106.692 C 122.576 106.316,119.547 109.190,119.846 109.675 C 119.964 109.865,119.821 109.970,119.530 109.910 C 119.238 109.849,119.049 110.038,119.110 110.330 C 119.170 110.621,119.056 110.758,118.855 110.634 C 118.655 110.510,118.335 110.632,118.145 110.904 C 117.664 111.595,117.923 131.200,118.414 131.200 C 118.626 131.200,118.800 131.012,118.800 130.783 C 118.800 130.554,120.610 128.563,122.822 126.359 L 126.844 122.351 126.772 112.375 C 126.733 106.889,126.661 102.400,126.612 102.400 C 126.564 102.400,126.226 102.730,125.861 103.132 M145.920 121.219 L 146.039 131.200 141.406 131.200 L 136.773 131.200 136.886 121.419 C 136.949 116.040,136.862 111.777,136.693 111.947 C 136.524 112.116,136.434 116.562,136.493 121.827 L 136.600 131.400 141.400 131.400 L 146.200 131.400 146.307 121.627 C 146.366 116.252,146.276 111.716,146.107 111.547 C 145.938 111.377,145.854 115.730,145.920 121.219 M165.134 111.720 C 165.414 112.058,165.625 114.856,165.700 119.229 L 165.820 126.200 165.910 118.943 C 165.990 112.531,165.924 111.656,165.343 111.434 C 164.829 111.236,164.783 111.298,165.134 111.720 M263.507 121.627 L 263.400 131.400 258.834 131.514 C 256.322 131.576,254.123 131.483,253.947 131.307 C 253.771 131.131,253.608 126.670,253.585 121.393 L 253.542 111.800 258.271 111.600 C 260.872 111.490,263.138 111.502,263.307 111.627 C 263.476 111.752,263.566 116.252,263.507 121.627 M138.505 111.887 C 139.114 111.979,140.014 111.977,140.505 111.882 C 140.997 111.787,140.500 111.711,139.400 111.714 C 138.300 111.717,137.897 111.795,138.505 111.887 M156.093 121.500 L 156.200 131.400 161.000 131.400 C 165.705 131.400,165.801 131.382,165.853 130.494 C 165.897 129.740,165.876 129.723,165.725 130.394 C 165.557 131.144,165.229 131.200,160.972 131.200 L 156.400 131.200 156.400 121.629 C 156.400 112.851,156.458 112.044,157.100 111.876 C 157.623 111.739,157.570 111.681,156.893 111.646 L 155.986 111.600 156.093 121.500 M175.681 121.100 C 175.763 130.660,175.906 129.558,176.097 117.899 C 176.154 114.434,176.065 111.599,175.900 111.599 C 175.735 111.600,175.637 115.875,175.681 121.100 M224.401 112.100 C 224.401 112.265,224.400 116.720,224.400 122.000 L 224.400 131.600 219.600 131.600 L 214.800 131.600 214.767 122.900 C 214.748 118.115,214.681 113.750,214.617 113.200 C 214.553 112.650,214.582 112.060,214.682 111.888 C 214.912 111.490,224.403 111.698,224.401 112.100 M243.907 121.500 L 243.800 131.400 239.000 131.400 L 234.200 131.400 234.079 121.500 L 233.957 111.600 238.986 111.600 L 244.014 111.600 243.907 121.500 M185.200 130.757 C 185.200 131.123,183.997 131.216,180.437 131.124 C 177.818 131.056,175.758 131.135,175.861 131.300 C 176.159 131.779,185.115 131.661,185.416 131.173 C 185.561 130.939,185.572 130.639,185.440 130.507 C 185.308 130.375,185.200 130.487,185.200 130.757 M117.357 136.400 C 117.357 139.370,117.420 140.585,117.497 139.100 C 117.574 137.615,117.574 135.185,117.497 133.700 C 117.420 132.215,117.357 133.430,117.357 136.400 M282.292 136.912 C 282.208 137.840,282.141 136.980,282.142 135.000 C 282.143 133.020,282.212 132.260,282.295 133.312 C 282.377 134.364,282.376 135.984,282.292 136.912 M102.700 151.099 C 105.395 151.168,109.805 151.168,112.500 151.099 C 115.195 151.030,112.990 150.973,107.600 150.973 C 102.210 150.973,100.005 151.030,102.700 151.099 M302.596 265.800 C 302.596 306.720,302.643 323.519,302.700 303.132 C 302.757 282.744,302.757 249.264,302.700 228.732 C 302.643 208.199,302.596 224.880,302.596 265.800 M121.591 341.500 L 118.200 345.000 121.700 341.609 C 124.951 338.459,125.382 338.000,125.091 338.000 C 125.031 338.000,123.456 339.575,121.591 341.500 M106.800 350.600 C 107.546 351.370,108.247 352.000,108.357 352.000 C 108.467 352.000,107.946 351.370,107.200 350.600 C 106.454 349.830,105.753 349.200,105.643 349.200 C 105.533 349.200,106.054 349.830,106.800 350.600 " stroke="none" fill="#b9b9b9" fill-rule="evenodd"></path><path id="path7" d="M204.579 68.800 C 204.579 76.170,204.633 79.185,204.699 75.500 C 204.765 71.815,204.765 65.785,204.699 62.100 C 204.633 58.415,204.579 61.430,204.579 68.800 M214.903 72.000 C 215.046 72.524,217.850 72.601,237.033 72.605 L 259.000 72.610 237.221 72.502 C 220.438 72.418,215.362 72.279,215.091 71.897 C 214.833 71.532,214.783 71.559,214.903 72.000 M151.700 72.700 C 157.805 72.762,167.795 72.762,173.900 72.700 C 180.005 72.638,175.010 72.587,162.800 72.587 C 150.590 72.587,145.595 72.638,151.700 72.700 M165.928 82.300 C 171.278 82.363,179.918 82.363,185.128 82.300 C 190.337 82.236,185.960 82.185,175.400 82.185 C 164.840 82.185,160.577 82.237,165.928 82.300 M215.128 82.300 C 220.478 82.363,229.118 82.363,234.328 82.300 C 239.537 82.236,235.160 82.185,224.600 82.185 C 214.040 82.185,209.777 82.237,215.128 82.300 M146.400 82.999 C 146.400 83.283,146.104 83.628,145.743 83.767 C 145.381 83.905,145.187 84.120,145.311 84.245 C 145.435 84.369,146.068 84.078,146.717 83.598 C 147.793 82.803,148.282 82.738,152.312 82.863 C 154.740 82.938,156.519 82.864,156.264 82.698 C 155.416 82.145,146.400 82.421,146.400 82.999 M198.700 82.689 C 199.415 82.778,200.585 82.778,201.300 82.689 C 202.015 82.601,201.430 82.528,200.000 82.528 C 198.570 82.528,197.985 82.601,198.700 82.689 M243.400 82.866 C 241.224 84.067,233.710 92.012,234.555 92.218 C 235.020 92.331,241.520 92.371,249.000 92.306 L 262.600 92.189 248.560 92.094 L 234.519 92.000 238.809 87.755 C 244.167 82.452,243.491 82.813,248.081 82.806 C 251.714 82.800,254.000 83.286,254.000 84.064 C 254.000 84.249,254.188 84.400,254.419 84.400 C 254.649 84.400,254.514 83.956,254.119 83.413 C 253.315 82.309,245.162 81.893,243.400 82.866 M157.211 83.500 C 157.251 84.606,166.131 92.402,166.701 91.832 C 166.829 91.705,166.722 91.600,166.464 91.600 C 166.205 91.600,164.086 89.710,161.753 87.400 C 157.536 83.224,157.190 82.926,157.211 83.500 M256.400 86.001 C 256.400 86.534,260.821 91.200,261.326 91.200 C 261.542 91.200,261.197 90.695,260.559 90.077 C 259.922 89.459,258.725 88.199,257.900 87.276 C 257.075 86.353,256.400 85.779,256.400 86.001 M142.198 87.202 C 141.158 88.351,141.620 88.480,142.714 87.346 C 143.217 86.826,143.470 86.400,143.276 86.400 C 143.082 86.400,142.597 86.761,142.198 87.202 M131.389 97.300 L 128.600 100.200 131.500 97.411 C 134.194 94.820,134.583 94.400,134.289 94.400 C 134.228 94.400,132.923 95.705,131.389 97.300 M126.975 101.700 L 125.800 103.000 127.100 101.825 C 128.312 100.730,128.584 100.400,128.275 100.400 C 128.206 100.400,127.621 100.985,126.975 101.700 M273.467 103.467 C 273.320 103.613,273.200 107.926,273.200 113.049 L 273.200 122.366 277.448 126.583 C 279.784 128.902,281.854 130.800,282.048 130.800 C 282.242 130.800,282.400 126.390,282.400 121.000 C 282.400 115.247,282.247 111.200,282.029 111.200 C 281.558 111.200,276.800 106.386,276.800 105.909 C 276.800 105.713,276.608 105.671,276.374 105.816 C 276.126 105.969,277.215 107.351,278.974 109.116 L 282.000 112.152 282.000 121.076 C 282.000 125.984,281.856 130.000,281.681 130.000 C 281.505 130.000,279.609 128.221,277.466 126.047 L 273.571 122.095 273.686 112.647 C 273.749 107.451,273.785 103.199,273.767 103.200 C 273.748 103.200,273.613 103.320,273.467 103.467 M274.805 104.809 C 275.038 105.244,275.447 105.586,275.714 105.568 C 276.078 105.545,276.074 105.486,275.698 105.334 C 275.421 105.223,275.285 104.986,275.395 104.808 C 275.505 104.630,275.322 104.379,274.988 104.251 C 274.494 104.061,274.460 104.164,274.805 104.809 M263.113 121.219 L 263.227 131.200 258.627 131.200 L 254.028 131.200 253.914 121.600 C 253.851 116.319,253.940 111.923,254.110 111.830 C 254.280 111.736,254.223 111.696,253.982 111.739 C 253.465 111.833,253.431 130.791,253.947 131.307 C 254.123 131.483,256.322 131.576,258.834 131.514 L 263.400 131.400 263.507 121.627 C 263.566 116.252,263.476 111.716,263.307 111.547 C 263.138 111.377,263.051 115.730,263.113 121.219 M117.373 121.400 C 117.373 126.900,117.430 129.205,117.499 126.523 C 117.568 123.841,117.568 119.341,117.499 116.523 C 117.430 113.705,117.374 115.900,117.373 121.400 M234.079 119.900 C 234.159 128.252,234.304 127.279,234.496 117.099 C 234.553 114.074,234.465 111.599,234.300 111.599 C 234.135 111.600,234.036 115.335,234.079 119.900 M243.692 121.700 L 243.600 131.200 239.027 131.200 L 234.453 131.200 234.269 130.100 C 234.093 129.055,234.087 129.060,234.142 130.200 L 234.200 131.400 238.908 131.513 C 244.606 131.649,244.043 132.790,243.900 121.391 L 243.784 112.200 243.692 121.700 M184.967 120.200 C 184.967 124.380,185.026 126.036,185.098 123.879 C 185.171 121.723,185.170 118.303,185.098 116.279 C 185.025 114.256,184.966 116.020,184.967 120.200 M224.161 118.800 C 224.161 122.210,224.222 123.605,224.297 121.900 C 224.372 120.195,224.372 117.405,224.297 115.700 C 224.222 113.995,224.161 115.390,224.161 118.800 M217.100 131.496 C 218.475 131.574,220.725 131.574,222.100 131.496 C 223.475 131.418,222.350 131.354,219.600 131.354 C 216.850 131.354,215.725 131.418,217.100 131.496 M238.887 140.698 L 281.975 140.804 282.089 145.502 L 282.203 150.200 282.401 145.306 L 282.600 140.412 239.200 140.503 L 195.800 140.593 238.887 140.698 M312.588 165.200 C 312.588 178.730,312.638 184.265,312.700 177.500 C 312.761 170.735,312.761 159.665,312.700 152.900 C 312.638 146.135,312.588 151.670,312.588 165.200 M88.188 165.400 C 88.188 178.600,88.238 183.942,88.300 177.271 C 88.361 170.601,88.361 159.801,88.300 153.271 C 88.238 146.742,88.188 152.200,88.188 165.400 M117.350 145.800 C 117.351 148.220,117.416 149.158,117.496 147.885 C 117.576 146.612,117.575 144.632,117.494 143.485 C 117.414 142.338,117.349 143.380,117.350 145.800 M195.350 145.800 C 195.351 148.220,195.416 149.158,195.496 147.885 C 195.576 146.612,195.575 144.632,195.494 143.485 C 195.414 142.338,195.349 143.380,195.350 145.800 M283.700 151.087 C 284.305 151.178,285.295 151.178,285.900 151.087 C 286.505 150.995,286.010 150.920,284.800 150.920 C 283.590 150.920,283.095 150.995,283.700 151.087 M290.700 151.098 C 292.735 151.171,296.065 151.171,298.100 151.098 C 300.135 151.025,298.470 150.966,294.400 150.966 C 290.330 150.966,288.665 151.025,290.700 151.098 M97.780 165.200 C 97.780 173.010,97.834 176.205,97.899 172.300 C 97.965 168.395,97.965 162.005,97.899 158.100 C 97.834 154.195,97.780 157.390,97.780 165.200 M302.175 165.000 C 302.175 170.940,302.231 173.426,302.299 170.524 C 302.367 167.622,302.367 162.762,302.299 159.724 C 302.231 156.686,302.175 159.060,302.175 165.000 M297.775 344.900 L 296.600 346.200 297.900 345.025 C 298.615 344.379,299.200 343.794,299.200 343.725 C 299.200 343.416,298.870 343.688,297.775 344.900 M227.800 346.000 C 227.508 346.472,227.887 347.200,228.424 347.200 C 228.631 347.200,228.800 346.840,228.800 346.400 C 228.800 345.556,228.218 345.324,227.800 346.000 M220.088 355.314 L 220.000 364.427 224.300 364.314 L 228.600 364.200 228.709 356.700 C 228.780 351.788,228.677 349.200,228.409 349.200 C 228.145 349.200,228.000 351.832,228.000 356.615 L 228.000 364.030 224.300 363.915 L 220.600 363.800 220.388 355.000 L 220.176 346.200 220.088 355.314 M179.508 355.300 L 179.400 363.800 175.800 364.024 L 172.200 364.249 176.100 364.324 L 180.000 364.400 180.000 355.600 C 180.000 350.760,179.914 346.800,179.808 346.800 C 179.702 346.800,179.567 350.625,179.508 355.300 M294.575 348.100 L 293.400 349.400 294.700 348.225 C 295.415 347.579,296.000 346.994,296.000 346.925 C 296.000 346.616,295.670 346.888,294.575 348.100 M170.891 355.900 C 170.810 363.511,170.868 364.400,171.449 364.400 C 171.943 364.400,171.993 364.273,171.658 363.869 C 171.379 363.534,171.174 360.410,171.100 355.369 L 170.982 347.400 170.891 355.900 M228.000 348.200 C 228.000 348.530,228.180 348.800,228.400 348.800 C 228.620 348.800,228.800 348.530,228.800 348.200 C 228.800 347.870,228.620 347.600,228.400 347.600 C 228.180 347.600,228.000 347.870,228.000 348.200 M291.578 351.100 L 290.200 352.600 291.700 351.222 C 292.525 350.463,293.200 349.788,293.200 349.722 C 293.200 349.416,292.862 349.704,291.578 351.100 " stroke="none" fill="#a1a5ae" fill-rule="evenodd"></path></g></svg>