<svg xmlns="http://www.w3.org/2000/svg" xmlns:xlink="http://www.w3.org/1999/xlink" viewBox="0 0 1000 1000"><defs><linearGradient id="a" x1="-103.01" y1="909.05" x2="413.55" y2="909.05" gradientTransform="matrix(1, 0, 0, -1, 345.17, 1409.45)" gradientUnits="userSpaceOnUse"><stop offset="0" stop-color="#e5e5e5"/><stop offset="1" stop-color="#fff"/></linearGradient></defs><rect width="1000" height="1000" fill="#4e0a05"/><path d="M242.16,751.45V693.16l10-1c48-4.82,71-15.19,101.76-46,35.9-35.9,59.95-80.9,99.75-186.71C480,389.46,501.84,347,536.05,299.1c29.86-41.77,77.18-75.62,130.17-93.11,26.11-8.62,61.62-14.94,83.94-14.94h8.57V307.74l-10,.87c-26.48,2.32-47.94,8.88-68.66,21-27.56,16.14-61.42,57.57-80.45,98.46-6.61,14.19-10.25,13.1,43.65,13.1h47.36V559.57L618,560l-72.66.38-8,17.66c-20.49,45.28-44.38,87.92-67.79,121-45,63.51-105,98-188.9,108.6-9.37,1.18-21.86,2.15-27.76,2.16H242.16V751.45Z" fill="url(#a)"/></svg>